<svg xmlns="http://www.w3.org/2000/svg" width="60" height="61" viewBox="0 0 60 61"><defs><clipPath id="qndaa"><path fill="#fff" d="M40 31c0 5.523-4.477 10-10 10s-10-4.477-10-10 4.477-10 10-10v1a9 9 0 1 0 6.364 2.636l.707-.707A9.969 9.969 0 0 1 40 31z"/></clipPath><clipPath id="qndab"><path fill="#fff" d="M21 21v-1h9v9h-1v-8z"/></clipPath></defs><g><g><path fill="none" stroke="#bb9c66" stroke-miterlimit="20" stroke-width="2" d="M40 31c0 5.523-4.477 10-10 10s-10-4.477-10-10 4.477-10 10-10v1a9 9 0 1 0 6.364 2.636l.707-.707A9.969 9.969 0 0 1 40 31z" clip-path="url(&quot;#qndaa&quot;)"/></g><g><path fill="none" stroke="#bb9c66" stroke-miterlimit="20" stroke-width="2" d="M21 21v-1h9v9h-1v-8z" clip-path="url(&quot;#qndab&quot;)"/></g></g></svg>