<svg xmlns="http://www.w3.org/2000/svg" width="228" height="121" viewBox="0 0 228 121"><defs><clipPath id="o3yba"><path fill="#fff" d="M150.615 44.03l.707-.708 16.97 16.971L169 61l-.707.707-16.97 16.97-.708-.706L167.585 61z"/></clipPath><clipPath id="o3ybb"><path fill="#fff" d="M143.615 44.03l.707-.708 16.97 16.971L162 61l-.707.707-16.97 16.97-.708-.706L160.585 61z"/></clipPath><clipPath id="o3ybc"><path fill="#fff" d="M60 61v-1h108v1z"/></clipPath></defs><g><g><path fill="none" stroke="#bb9c66" stroke-miterlimit="20" stroke-width="2" d="M150.615 44.03l.707-.708 16.97 16.971h0L169 61l-.707.707h0l-16.97 16.97-.708-.706L167.585 61z" clip-path="url(&quot;#o3yba&quot;)"/></g><g><path fill="none" stroke="#bb9c66" stroke-miterlimit="20" stroke-width="2" d="M143.615 44.03l.707-.708 16.97 16.971h0L162 61l-.707.707h0l-16.97 16.97-.708-.706L160.585 61z" clip-path="url(&quot;#o3ybb&quot;)"/></g><g><path fill="none" stroke="#bb9c66" stroke-miterlimit="20" stroke-width="6" d="M60 61v0-1 0h108v1z" clip-path="url(&quot;#o3ybc&quot;)"/></g></g></svg>